HIERARCHY
ROOT Hips
{
	OFFSET 0.000000 0.000000 0.000000
	CHANNELS 6 Xposition Yposition Zposition Xrotation Yrotation Zrotation
	JOINT LeftUpLeg_virtual
	{
		OFFSET 0.000000 0.000000 0.000000
		CHANNELS 3 Xrotation Yrotation Zrotation
		JOINT LeftUpLeg
		{
			OFFSET 13.026900 -6.336304 -1.092800
			CHANNELS 3 Xrotation Yrotation Zrotation
			JOINT LeftLeg
			{
				OFFSET 0.524474 -46.096886 9.782700
				CHANNELS 3 Xrotation Yrotation Zrotation
				JOINT LeftFoot
				{
					OFFSET -0.524474 -53.427422 -12.948200
					CHANNELS 3 Xrotation Yrotation Zrotation
					JOINT LeftToeBase
					{
						OFFSET 0.192200 -14.009700 16.364100
						CHANNELS 3 Xrotation Yrotation Zrotation
						JOINT LeftToe_End
						{
							OFFSET -1.784700 -0.561700 9.474800
							CHANNELS 3 Xrotation Yrotation Zrotation
							End Site
							{
								OFFSET 0 0 0
							}
						}
					}
				}
			}
		}
	}
	JOINT RightUpLeg_virtual
	{
		OFFSET 0.000000 0.000000 0.000000
		CHANNELS 3 Xrotation Yrotation Zrotation
		JOINT RightUpLeg
		{
			OFFSET -12.883000 -6.336304 -1.092800
			CHANNELS 3 Xrotation Yrotation Zrotation
			JOINT RightLeg
			{
				OFFSET -0.524587 -46.096825 9.782800
				CHANNELS 3 Xrotation Yrotation Zrotation
				JOINT RightFoot
				{
					OFFSET 0.524587 -53.427383 -12.948300
					CHANNELS 3 Xrotation Yrotation Zrotation
					JOINT RightToeBase
					{
						OFFSET -0.192200 -14.009700 16.364100
						CHANNELS 3 Xrotation Yrotation Zrotation
						JOINT RightToe_End
						{
							OFFSET 1.784700 -0.561700 9.474800
							CHANNELS 3 Xrotation Yrotation Zrotation
							End Site
							{
								OFFSET 0 0 0
							}
						}
					}
				}
			}
		}
	}
	JOINT Spine_virtual
	{
		OFFSET 0.000000 0.000000 0.000000
		CHANNELS 3 Xrotation Yrotation Zrotation
		JOINT Spine
		{
			OFFSET 0.072000 7.257294 -0.789700
			CHANNELS 3 Xrotation Yrotation Zrotation
			JOINT Spine1
			{
				OFFSET 0.000000 12.508769 -0.658067
				CHANNELS 3 Xrotation Yrotation Zrotation
				JOINT Spine1_split
				{
					OFFSET 0.000000 12.508769 -0.658067
					CHANNELS 3 Xrotation Yrotation Zrotation
					JOINT Spine2
					{
						OFFSET 0.000000 12.508769 -0.658067
						CHANNELS 3 Xrotation Yrotation Zrotation
						JOINT Neck_virtual
						{
							OFFSET 0.000000 0.000000 0.000000
							CHANNELS 3 Xrotation Yrotation Zrotation
							JOINT Neck
							{
								OFFSET 0.000000 14.033295 7.520400
								CHANNELS 3 Xrotation Yrotation Zrotation
								JOINT Head
								{
									OFFSET 0.000000 8.198502 5.703100
									CHANNELS 3 Xrotation Yrotation Zrotation
									JOINT HeadTop_End
									{
										OFFSET 0.000000 17.760803 13.332701
										CHANNELS 3 Xrotation Yrotation Zrotation
										End Site
										{
											OFFSET 0 0 0
										}
									}
								}
							}
						}
						JOINT LeftShoulder_virtual
						{
							OFFSET 0.000000 0.000000 0.000000
							CHANNELS 3 Xrotation Yrotation Zrotation
							JOINT LeftShoulder
							{
								OFFSET 6.292450 5.785301 -0.669000
								CHANNELS 3 Xrotation Yrotation Zrotation
								JOINT LeftShoulder_split
								{
									OFFSET 6.292450 5.785301 -0.669000
									CHANNELS 3 Xrotation Yrotation Zrotation
									JOINT LeftArm
									{
										OFFSET 13.907140 -6.093903 1.965100
										CHANNELS 3 Xrotation Yrotation Zrotation
										JOINT LeftForeArm
										{
											OFFSET 34.140198 0.000000 0.000000
											CHANNELS 3 Xrotation Yrotation Zrotation
											JOINT LeftHand
											{
												OFFSET 40.960209 0.000000 0.000000
												CHANNELS 3 Xrotation Yrotation Zrotation
												End Site
												{
													OFFSET 0 0 0
												}
											}
										}
									}
								}
							}
						}
						JOINT RightShoulder_virtual
						{
							OFFSET 0.000000 0.000000 0.000000
							CHANNELS 3 Xrotation Yrotation Zrotation
							JOINT RightShoulder
							{
								OFFSET -6.292450 5.785301 -0.669000
								CHANNELS 3 Xrotation Yrotation Zrotation
								JOINT RightShoulder_split
								{
									OFFSET -6.292450 5.785301 -0.669000
									CHANNELS 3 Xrotation Yrotation Zrotation
									JOINT RightArm
									{
										OFFSET -13.907140 -6.093903 1.965100
										CHANNELS 3 Xrotation Yrotation Zrotation
										JOINT RightForeArm
										{
											OFFSET -34.140198 0.000000 0.000000
											CHANNELS 3 Xrotation Yrotation Zrotation
											JOINT RightHand
											{
												OFFSET -40.960209 0.000000 0.000000
												CHANNELS 3 Xrotation Yrotation Zrotation
												End Site
												{
													OFFSET 0 0 0
												}
											}
										}
									}
								}
							}
						}
					}
				}
			}
		}
	}
}
MOTION
Frames: 4
Frame Time: 0.03333333
-0.430469 94.638268 1.724846 0.000000 0.000000 0.000000 11.699466 -51.667618 10.693537 -65.745885 26.029682 39.024122 38.954454 -15.434508 3.092641 9.606197 -7.747145 -9.444168 -8.835329 -6.716449 0.372308 0.000000 0.000000 0.000000 12.405267 -52.207924 11.239616 -26.533854 -4.391499 -25.482614 38.777696 9.241821 -8.862950 -23.830095 -5.084535 27.703531 0.127996 4.596070 2.731844 0.000000 0.000000 0.000000 13.573247 -45.995894 10.709458 6.140972 3.918799 -4.529279 6.735236 7.253826 -4.804531 0.179776 -2.173445 0.371663 0.000000 0.000000 0.000000 -3.338386 7.162078 -3.294166 -0.269951 13.841331 -1.710816 -2.047444 19.554596 -2.579687 0.000000 0.000000 0.000000 -4.307861 6.498408 -2.864682 -0.214672 -14.197163 0.593228 -2.186453 -2.457797 0.294185 -20.721616 1.220557 -48.703968 -20.106608 -13.160727 -9.289231 0.000000 0.000000 0.000000 -5.044948 6.547019 -2.542746 -0.641779 19.205051 -1.250320 -5.099707 -5.309078 7.175853 -1.066225 -22.274295 54.542199 -23.089176 43.575497 24.077776 0.000000 0.000000 0.000000 
0.241176 95.055923 1.805058 0.000000 0.000000 0.000000 11.921393 -51.856282 11.074941 -65.168385 24.954422 37.831608 38.788979 -15.789468 2.763247 9.635954 -6.840268 -9.504440 -7.091286 -6.591569 -0.018420 0.000000 0.000000 0.000000 12.472823 -52.847817 11.745214 -26.583714 -4.710601 -25.399426 38.839714 8.770403 -8.673838 -23.808472 -5.175475 26.042869 0.943287 4.572614 3.076070 0.000000 0.000000 0.000000 13.417207 -46.108807 10.559627 6.095275 3.942102 -4.715578 6.745429 7.254090 -4.942071 0.019537 -2.097972 0.484182 0.000000 0.000000 0.000000 -3.524414 7.164638 -3.338077 -0.335452 14.385201 -2.432995 -1.734283 19.977533 -3.062761 0.000000 0.000000 0.000000 -4.426361 6.522303 -2.930635 -0.340132 -13.853586 0.254843 -2.682937 -2.362852 0.355115 -20.070577 1.761313 -47.969757 -20.171552 -13.464985 -9.592016 0.000000 0.000000 0.000000 -4.938091 6.544613 -2.692200 -0.559744 19.171340 -0.799147 -6.720114 -4.457521 6.726740 -1.488572 -23.705090 54.120804 -23.190847 43.744828 24.552877 0.000000 0.000000 0.000000 
1.077018 95.774498 1.573490 0.000000 0.000000 0.000000 12.148583 -53.496555 11.805558 -63.730753 23.926837 37.079471 37.824782 -15.865684 2.172676 9.578029 -5.255014 -11.006939 -4.598066 -6.405085 -0.316681 0.000000 0.000000 0.000000 12.480745 -54.948008 12.557759 -27.847144 -4.743766 -24.888994 38.731513 8.882507 -8.329746 -23.140929 -4.826059 24.000945 1.404949 4.610898 2.944750 0.000000 0.000000 0.000000 13.327004 -47.928107 10.861487 6.617091 3.758777 -4.830150 6.934661 7.203818 -5.179338 -0.089600 -2.144137 0.800454 0.000000 0.000000 0.000000 -3.511497 7.088759 -3.513763 -0.587088 15.105105 -3.422677 -1.426513 20.451772 -4.299541 0.000000 0.000000 0.000000 -4.416175 6.547467 -3.139553 -0.552581 -13.002384 -0.978257 -3.227756 -2.589532 0.359780 -19.684996 2.853835 -47.023301 -18.911851 -14.161833 -9.312532 0.000000 0.000000 0.000000 -4.679661 6.551727 -2.968112 -0.484532 18.614198 -0.099175 -7.851347 -4.203613 6.041138 -2.646086 -23.569050 52.299691 -24.036201 45.082855 26.111654 0.000000 0.000000 0.000000 
1.857909 96.396706 1.002338 0.000000 0.000000 0.000000 12.529380 -56.826805 12.966095 -61.684456 23.413690 37.204361 36.315276 -15.419533 1.368456 9.534695 -3.027908 -13.401921 -2.605236 -6.174892 -0.403818 0.000000 0.000000 0.000000 12.773934 -58.651627 13.814505 -30.566295 -4.558247 -23.900481 38.988711 9.623918 -7.843555 -21.228182 -3.887002 22.109474 0.924804 4.640123 2.485355 0.000000 0.000000 0.000000 13.319796 -51.529611 11.659557 7.500606 3.326564 -4.843900 7.236988 7.016175 -5.470761 -0.195247 -2.258392 1.415938 0.000000 0.000000 0.000000 -3.260574 6.908966 -3.791146 -0.908675 16.074802 -4.661106 -1.252834 20.931938 -6.082876 0.000000 0.000000 0.000000 -4.276640 6.499188 -3.476137 -0.766248 -11.724162 -2.873053 -3.480234 -2.962236 0.207739 -19.545070 4.177191 -46.113045 -16.394445 -14.466484 -8.397368 0.000000 0.000000 0.000000 -4.381660 6.457698 -3.333395 -0.391548 17.455267 0.666685 -8.238644 -4.220627 5.418754 -3.943391 -21.342316 49.248061 -25.478103 47.601825 28.624812 0.000000 0.000000 0.000000 
